<mxfile host="app.diagrams.net" agent="Mozilla/5.0 (Macintosh; Intel Mac OS X 10_15_7) AppleWebKit/537.36 (KHTML, like Gecko) Chrome/127.0.0.0 Safari/537.36" version="24.7.7">
  <diagram name="Page-1" id="YNnwUIoZ_ac8-_KmKKJi">
    <mxGraphModel dx="485" dy="1499" grid="1" gridSize="10" guides="1" tooltips="1" connect="1" arrows="1" fold="1" page="1" pageScale="1" pageWidth="850" pageHeight="1100" math="0" shadow="0">
      <root>
        <mxCell id="0" />
        <mxCell id="1" parent="0" />
        <mxCell id="S4tCiiW7yjD-wL77X7ih-5" value="Cloudflare" style="swimlane;whiteSpace=wrap;html=1;" vertex="1" parent="1">
          <mxGeometry x="555" y="-40" width="200" height="200" as="geometry" />
        </mxCell>
        <mxCell id="S4tCiiW7yjD-wL77X7ih-13" value="" style="sketch=0;points=[[0.015,0.015,0],[0.985,0.015,0],[0.985,0.985,0],[0.015,0.985,0],[0.25,0,0],[0.5,0,0],[0.75,0,0],[1,0.25,0],[1,0.5,0],[1,0.75,0],[0.75,1,0],[0.5,1,0],[0.25,1,0],[0,0.75,0],[0,0.5,0],[0,0.25,0]];verticalLabelPosition=bottom;html=1;verticalAlign=top;aspect=fixed;align=center;pointerEvents=1;shape=mxgraph.cisco19.dns_server;fillColor=#005073;strokeColor=none;" vertex="1" parent="S4tCiiW7yjD-wL77X7ih-5">
          <mxGeometry x="71" y="70" width="44" height="80" as="geometry" />
        </mxCell>
        <mxCell id="S4tCiiW7yjD-wL77X7ih-6" value="GitHubAction - FrontEnd" style="swimlane;whiteSpace=wrap;html=1;" vertex="1" parent="1">
          <mxGeometry x="310" y="390" width="690" height="110" as="geometry" />
        </mxCell>
        <mxCell id="S4tCiiW7yjD-wL77X7ih-8" value="Install" style="shape=step;perimeter=stepPerimeter;whiteSpace=wrap;html=1;fixedSize=1;" vertex="1" parent="S4tCiiW7yjD-wL77X7ih-6">
          <mxGeometry x="20" y="40" width="100" height="50" as="geometry" />
        </mxCell>
        <mxCell id="S4tCiiW7yjD-wL77X7ih-37" value="Build" style="shape=step;perimeter=stepPerimeter;whiteSpace=wrap;html=1;fixedSize=1;" vertex="1" parent="S4tCiiW7yjD-wL77X7ih-6">
          <mxGeometry x="110" y="40" width="100" height="50" as="geometry" />
        </mxCell>
        <mxCell id="S4tCiiW7yjD-wL77X7ih-38" value="Semantic&amp;nbsp;&lt;div&gt;Release&lt;/div&gt;" style="shape=step;perimeter=stepPerimeter;whiteSpace=wrap;html=1;fixedSize=1;" vertex="1" parent="S4tCiiW7yjD-wL77X7ih-6">
          <mxGeometry x="290" y="40" width="100" height="50" as="geometry" />
        </mxCell>
        <mxCell id="S4tCiiW7yjD-wL77X7ih-39" value="Tests" style="shape=step;perimeter=stepPerimeter;whiteSpace=wrap;html=1;fixedSize=1;" vertex="1" parent="S4tCiiW7yjD-wL77X7ih-6">
          <mxGeometry x="200" y="40" width="100" height="50" as="geometry" />
        </mxCell>
        <mxCell id="S4tCiiW7yjD-wL77X7ih-7" value="AWS" style="swimlane;whiteSpace=wrap;html=1;" vertex="1" parent="1">
          <mxGeometry x="310" y="180" width="690" height="200" as="geometry" />
        </mxCell>
        <mxCell id="S4tCiiW7yjD-wL77X7ih-1" value="&lt;b&gt;CloudFront&lt;/b&gt;" style="sketch=0;points=[[0,0,0],[0.25,0,0],[0.5,0,0],[0.75,0,0],[1,0,0],[0,1,0],[0.25,1,0],[0.5,1,0],[0.75,1,0],[1,1,0],[0,0.25,0],[0,0.5,0],[0,0.75,0],[1,0.25,0],[1,0.5,0],[1,0.75,0]];outlineConnect=0;fontColor=#232F3E;fillColor=#8C4FFF;strokeColor=#ffffff;dashed=0;verticalLabelPosition=bottom;verticalAlign=top;align=center;html=1;fontSize=12;fontStyle=0;aspect=fixed;shape=mxgraph.aws4.resourceIcon;resIcon=mxgraph.aws4.cloudfront;" vertex="1" parent="S4tCiiW7yjD-wL77X7ih-7">
          <mxGeometry x="160" y="130" width="50" height="50" as="geometry" />
        </mxCell>
        <mxCell id="S4tCiiW7yjD-wL77X7ih-3" value="S3" style="outlineConnect=0;dashed=0;verticalLabelPosition=bottom;verticalAlign=top;align=center;html=1;shape=mxgraph.aws3.s3;fillColor=#E05243;gradientColor=none;" vertex="1" parent="S4tCiiW7yjD-wL77X7ih-7">
          <mxGeometry x="290" y="123" width="50" height="64" as="geometry" />
        </mxCell>
        <mxCell id="S4tCiiW7yjD-wL77X7ih-14" value="&lt;b&gt;Lambda&lt;/b&gt;" style="outlineConnect=0;dashed=0;verticalLabelPosition=bottom;verticalAlign=top;align=center;html=1;shape=mxgraph.aws3.lambda_function;fillColor=#F58534;gradientColor=none;" vertex="1" parent="S4tCiiW7yjD-wL77X7ih-7">
          <mxGeometry x="30" y="120" width="48" height="46" as="geometry" />
        </mxCell>
        <mxCell id="S4tCiiW7yjD-wL77X7ih-15" value="&lt;b&gt;Cognito&lt;/b&gt;" style="sketch=0;points=[[0,0,0],[0.25,0,0],[0.5,0,0],[0.75,0,0],[1,0,0],[0,1,0],[0.25,1,0],[0.5,1,0],[0.75,1,0],[1,1,0],[0,0.25,0],[0,0.5,0],[0,0.75,0],[1,0.25,0],[1,0.5,0],[1,0.75,0]];outlineConnect=0;fontColor=#232F3E;fillColor=#DD344C;strokeColor=#ffffff;dashed=0;verticalLabelPosition=bottom;verticalAlign=top;align=center;html=1;fontSize=12;fontStyle=0;aspect=fixed;shape=mxgraph.aws4.resourceIcon;resIcon=mxgraph.aws4.cognito;" vertex="1" parent="S4tCiiW7yjD-wL77X7ih-7">
          <mxGeometry x="430" y="120" width="54" height="54" as="geometry" />
        </mxCell>
        <mxCell id="S4tCiiW7yjD-wL77X7ih-24" value="AWS CodePipeline" style="sketch=0;outlineConnect=0;fontColor=#232F3E;gradientColor=none;strokeColor=#ffffff;fillColor=#232F3E;dashed=0;verticalLabelPosition=middle;verticalAlign=bottom;align=center;html=1;whiteSpace=wrap;fontSize=10;fontStyle=1;spacing=3;shape=mxgraph.aws4.productIcon;prIcon=mxgraph.aws4.codepipeline;" vertex="1" parent="S4tCiiW7yjD-wL77X7ih-7">
          <mxGeometry x="30" y="31" width="50" height="80" as="geometry" />
        </mxCell>
        <mxCell id="S4tCiiW7yjD-wL77X7ih-25" value="AWS CodeBuild" style="sketch=0;outlineConnect=0;fontColor=#232F3E;gradientColor=none;strokeColor=#ffffff;fillColor=#232F3E;dashed=0;verticalLabelPosition=middle;verticalAlign=bottom;align=center;html=1;whiteSpace=wrap;fontSize=10;fontStyle=1;spacing=3;shape=mxgraph.aws4.productIcon;prIcon=mxgraph.aws4.codebuild;" vertex="1" parent="S4tCiiW7yjD-wL77X7ih-7">
          <mxGeometry x="160" y="29.13" width="52" height="80" as="geometry" />
        </mxCell>
        <mxCell id="S4tCiiW7yjD-wL77X7ih-29" value="&lt;b&gt;ALB&lt;/b&gt;" style="outlineConnect=0;dashed=0;verticalLabelPosition=bottom;verticalAlign=top;align=center;html=1;shape=mxgraph.aws3.application_load_balancer;fillColor=#F58534;gradientColor=none;" vertex="1" parent="S4tCiiW7yjD-wL77X7ih-7">
          <mxGeometry x="290" y="32.88" width="50" height="49" as="geometry" />
        </mxCell>
        <mxCell id="S4tCiiW7yjD-wL77X7ih-26" value="&lt;b&gt;ECS&lt;/b&gt;" style="outlineConnect=0;dashed=0;verticalLabelPosition=bottom;verticalAlign=top;align=center;html=1;shape=mxgraph.aws3.ecs;fillColor=#F58534;gradientColor=none;" vertex="1" parent="S4tCiiW7yjD-wL77X7ih-7">
          <mxGeometry x="434" y="31.000000000000004" width="50" height="49" as="geometry" />
        </mxCell>
        <mxCell id="S4tCiiW7yjD-wL77X7ih-27" value="&lt;b&gt;Task Definition&lt;/b&gt;" style="sketch=0;outlineConnect=0;fontColor=#232F3E;gradientColor=none;fillColor=#ED7100;strokeColor=none;dashed=0;verticalLabelPosition=bottom;verticalAlign=top;align=center;html=1;fontSize=12;fontStyle=0;aspect=fixed;pointerEvents=1;shape=mxgraph.aws4.ecs_task;" vertex="1" parent="S4tCiiW7yjD-wL77X7ih-7">
          <mxGeometry x="589.6700000000001" y="31.009999999999998" width="40.66" height="52.75" as="geometry" />
        </mxCell>
        <mxCell id="S4tCiiW7yjD-wL77X7ih-28" value="&lt;b&gt;Containers&lt;/b&gt;" style="sketch=0;points=[[0,0,0],[0.25,0,0],[0.5,0,0],[0.75,0,0],[1,0,0],[0,1,0],[0.25,1,0],[0.5,1,0],[0.75,1,0],[1,1,0],[0,0.25,0],[0,0.5,0],[0,0.75,0],[1,0.25,0],[1,0.5,0],[1,0.75,0]];outlineConnect=0;fontColor=#232F3E;fillColor=#ED7100;strokeColor=#ffffff;dashed=0;verticalLabelPosition=bottom;verticalAlign=top;align=center;html=1;fontSize=12;fontStyle=0;aspect=fixed;shape=mxgraph.aws4.resourceIcon;resIcon=mxgraph.aws4.fargate;" vertex="1" parent="S4tCiiW7yjD-wL77X7ih-7">
          <mxGeometry x="580" y="117" width="60" height="60" as="geometry" />
        </mxCell>
        <mxCell id="S4tCiiW7yjD-wL77X7ih-9" value="Team A" style="swimlane;whiteSpace=wrap;html=1;" vertex="1" parent="1">
          <mxGeometry x="80" y="390" width="200" height="70" as="geometry" />
        </mxCell>
        <mxCell id="S4tCiiW7yjD-wL77X7ih-11" value="Team B" style="swimlane;whiteSpace=wrap;html=1;" vertex="1" parent="1">
          <mxGeometry x="80" y="470" width="200" height="70" as="geometry" />
        </mxCell>
        <mxCell id="S4tCiiW7yjD-wL77X7ih-12" value="Team C" style="swimlane;whiteSpace=wrap;html=1;" vertex="1" parent="1">
          <mxGeometry x="80" y="550" width="200" height="70" as="geometry" />
        </mxCell>
        <mxCell id="S4tCiiW7yjD-wL77X7ih-21" value="" style="shape=image;verticalLabelPosition=bottom;labelBackgroundColor=default;verticalAlign=top;aspect=fixed;imageAspect=0;image=data:image/webp,UklGRoBBAABXRUJQVlA4WAoAAAAIAAAAFgMATQIAVlA4INxAAACQRgGdASoXA04CPm02l0kkIqKhInNpyIANiWdu/FuY2NjAz46ygP5v8oPI7kn1l+W/NX2ruO++X0d66/774zf3fdH2Z5k3J3/K/s35n/OD/D/7L+uf4P4QfoH/pe4H/Uv6x+ufrY/pF7yP7p/yPyO+An8w/xn7Xe7d/rf2A91/9W/zX7I/AF/Wf8z/8vW99lP/H/8n2Ef5x/q//R65P7c/+n5RP6r/vv3F/8vvSf/rrAOrH6l/2T8mPA3+s/2b9jf7p6j/jfzT9q/uH7I/3X9sPkA/afDj1n/y/Qr+PfYz8L/cP3B/v37lfdf9l/xX5S/4D0X+Mn9z/efYC/G/5F/ff7n+2P+B/eX1qu1i1H/bf8j1AvVn59/pP8D/k//b/l/RP/kv8Z+0/7//JH18/yn5mf4j7AP5b/U/81/ff24/uP///833p/w/+J4wn3L/O/8v7cvsC/l39X/zv+Q/en/OfTF/Q/+H/O/7H9pfa5+ef5P/uf5n/Rftr9hH8t/qv/F/v/+k/an///V9/+vb1+5f//91H9qf/4M0CRN8uggSJvl0ECRN8uggSJvl0ECRN8uggSJvl0ECRN8uggSJvl0ECRN8fyF7s06yAdKeUeuemD1aRtfTJuOQCNXCRN8uggRp38+tkw38uzBuG5ewXYfe+RvcHHjuuQvdche6yJ2qxbpzmA0c+041E3xdVgM+9aPAbFTLImVHzkkrxR/KgSJvlzTs4Yh+/AqEJIlB5e3SPqyT6OICYTNwSwi6O4OTCcmn8y4ESrRwwWjOTAJKy75NJ53y6ANecEA7hzeR1ym1pUoggfInRbFdPNXTzDDkdXmKXEFW6QekJ1XIk6N5FqVCYxtA9UWECkhsh66gkaoH5Tia91AjX2BLN6SgJTtMLMZVlszaccO/msZLbfAJyImzhPxEfy9DK6poRlUfIKQmaEU82N8uggKYFoJAjEKZtwe5cvNFxOPZWqz6c5t3BAElD8vydH58bLZpQ+0EjUtE+PPipYy3weAR9V+KVS3fBgoshigJkZaxEMTG+LYmarUrZFsDUlVi2tGehlt4NmxWZi1N8uggSJvBQZfxzsGooPLiL+7ylhl5bYTcuK2aeExvmhs81ZWt//VqKWbauTp7x1KZLT5IyU66gSJnHy4b7m7rkL3XIXwlYgh7fAKcOlTFE/IIyORoe6o9tWwjHgOLKdnbzuDShAPQ62BSJ1ek/xLoppMFME3amKw+m5u65C7BD/TIToSyTTKUyQpjbtedZx18Apw6U9NVz1cq3YcAnLJ1/MJtD5lEkGuvOjlSqaO76Y9kRYrTGdb+bufqabl0CdYecVAgvSrIkCKuyBJRwyHcrJIM+VjZD9SHzc3dcheCbXKlJD8KJucSd5CoCShDO65TGnKYqerDDDXcYM9+k6zxyEib5dAeOSCnjUVljXqADpzuhU+IYtGjWBy8Vk5MHcm8Lt0ECRN5SJDw+whNsqJvKRK1ib5dBAkTfLoIEib5dAcgzBU3AL1jspzHQXnx3QqgSJvl0ECRN8ugOQZgqZDIxnQDOKgBTODA3tJ0F58d0KoEib5dBAkTfLoDkGYKmQyMZ0A8cBDfdAZ96D7Qt7Ktay8ftBQmOfmCRozdFkZuiyM3PShRMf3yjZN+D7PPs05uj74Uq5tXxwUiCbm7rkMhYIUjfZcdAYIODUGdogaBIm+Lr9y3naZDePuRt1hv3fycdoKnJyGYwToToeX5n+Q/916YQs1EA84NLE32nHPjD166C8eA6FUBiXIH1/gpzJhwlPWn6v7DR6I7xJ0hgMX+avP+8ggMQwfMYxqIDh4gZ9bFdPA3TzV081dPNXTb1LCiga35Ruu2nlgKWXcxlEZ5KzamJj4cL47qS+ZP6EuPdNRYHM8AmsWooykTJd+AHa2m4Ze5xKz0JnR1P02JIm+WkeMBy4o/OkW0YmwiyWgUJlBF/cUV4qTu6VAkTTAkE10qCcoRwSpfIPrnzhZj0oDqNhMOFJ2ucTC7x4h6PiyTsdVGcIidb8zZ6ImC9UdMdb5+QRsx5pl3x7TjboSWIco1DoygStkiFBAnI1EBxe+Ovv3sLLLr+fx6+Eo7jXnPG7odQ52o4rSjc4KPa1ZdD4LBN/RP2+AIYER0O2tS2wGaSd8uxjoC/hNAmBydmh2bAEa3GoqK0PTzw00HBiHYTnKsIMZI1P0aQtBlxwoGRZkZmTyPVwjPPhvHQQI5lDn0/Ra3NJSEijhV8yrBwq5ilwJbbJ/ZPLJ91nwioBp2e/i7yUdgxTBLznaABOlhAhl3RSW9S9jdxiFACekEdvFk4rEH9BXlodVwSBIm8pS02A5Y9w9ws9hTffHDeTDxarofnI4eeVcNMRKA9jHQF/CaBMDk5jgdUjTGRVvfQ9zAIziijBpa0h5MeoUD6h+xq1gMNzIC8teMeRefIsqztpOkLf2MPo19E/cuoDPfYIbWb8WO1VjiX0zYLCssbbvTxYop5MyEtMVO+O+Ja3TQAysF7txcOdHOhjg3Nwv/e5xqBz14TzwB3gddBvFh1WPZdKuhzoSK8tDqnBn8f1ZwZXDOFXlC+3/Xe4SN7RqXThnFYs2j1kn3P/wlr2pyCvF0rDhmkdu83t6fWPZ8/17jqawxJ2Oi72xx3GrOxILm2/lmkKIUW0C+LRttDj2abaI2Otqi20obmmvX2Y8SA0fJE3ug/jsI7An5d0jC4ScO7ea7NNt5b0IKxpQnsdSgJ9gWGLARXgFu+IxViwBUVzGFQPLZc/Ags6IBq94xh954gHsvBHmq9BS/c++w8HOSs2piOBVA493jtn2MdAX8JoEwOTnEiyTgaa6C0fs5fsFQ5v33cSRCf6gR0Cp6qiHQu+8ApubP5XbmtefxKIFiGGGueIyp5h2XyiLPyhHBKl7yAnIqFtHelEgEhJAJYYotyrKLAjdqwwUJHpl/mATiAztCiEGoH5dHgOiGtITpLb4dNDdvnGTehpMfw14Sil8qBtjGPT62NnixJAgd0TkeMJ8i9I+TpsQKpJacgbSTUv33cSRCf6gR0CqBIm+XQ0tT3R+TsCMYe4iIJ9sFhN9ibQNlPjKWiYrCcSx1Hr4dSjZdGcBhxMdipmzMtcuEkKc5aVq9HN6lMvk1RcWNRguMsuqSA1HaMqFwmnuTRwvHVdjfLZEl8uggSKJgbxsvSJhon5B1u7tUG0YEl3zRyP4cBXJVht8BCOMyd/Ar9SJYCgaiVbkgfWF5NO3AKBkxVXBIEiby2qJvl0ECcjUQHF73NIkVRV/73s4+JH4Jiismd60xlN+3KxlT1Rh1j5dAcSwvHVdjfLZEl8uggSKJgbxsvu79nu/rgizW9o1QSNUEjVA84pLbyy0jWJvkDIm+XQQJH4dMyi3YiAXwkjoMGOmGDHTDBjphgx0wwY3PwsboLg4PcIAE/ls9vl0ECROKnfLnD5NYJPy6gSJvJ4PYQP2+AI3b4BTh0o8rxWqBIg+akjxw6VAkTSeetZUTfLYdqbfAKcOtEAD+/znAAAAAAAWq8UDmOxpyh9edHn4AuV3vRMR10GhW0cTjR1tXRDG6Zb0DopuyrePhV62+PC5h+u1n/GVPVKnzpMgHQq6B8fGB1U1pKSX+mwhJVLsEgGBmKs6CfPCS/dJIX9lrMAT3jVAu3h8e7JOqeMOwtLcI3yCqoQiw0unKc1IZo8twxpmoEA3w49f4PLW+gZY+b39sy/nXECYMqSsJJwE7c8hwRvf8dYrJryLIuAaJ8VDK1Q0Uux4RDgzGXSmuH9xRwMKNyEpkaOO5qwhBr9tONTLqt814tdfmDLmtioVVZp3276GvPusuuaAXF84Z2U5KfhfHm7jYVa2jX+fjQynXCf70XNqAJXCUErHR2zrKT4AeaumJp1AINDBtXkBQrRAmbxQhmDVVCLVcWwvOJZbPsVCkc6CILRKtOD74N7psT4vEPKjKena1McsEQZk1uP4n+2vAVOSNuZAcj6IY32Qcwq115JnWeRlURsVJTAhUIoC0gt6GHVYqZtmho9O22rpvX+JOPB6BOMCW1n+m8K2isISy+1CVLKYxwpijYT6c0GoABMb26BqSUIFMAv2VahpmzIqTdoC78TSvhWVua3SBfV2l/OhCByKCDuryrd7Rq7IkiEwl9US+DB6lqupCvWRV81YwUTYzTusho4E7woGH/2wgH9gsKLjPl6FvvQ9F5a/xX8UFo8Pk4Jv6oHu3Xv27DcWFkMVSUeF0HMid5bz73pbGTlMcsHw4BfVRDu2oGcjqub0jR58Rx+75wg+3CN4nUPhFj9r03be73haMFVO0HZh0N0h6pnnDmzJj/ll/ULpoF9qzy3fLdqtkzp0RHY6135IvOSr8+d8VNh6KsWCSo6InV2P0k6FCV3gGz0+mHQIliuRGTTbfv9p1QPNc7DMYw03LtIbw4+WEba41o/+rdTFkLUxKrLE5g1eLwHtxIWcKDCY5PY5GmTnFTm53DV5Eqnm6D0w/ZMzfB0pcWXysLTXeje8XSyT/h67EW4P0BiARWgR3wf0E2aS0N/qJWIsY8nepPIBPnAQDqz+uJTaeJrcfStcIFAMtGE22I7RK+ftbqF6UkMNctTTMZJdKxAFLNymK9IQPGOCfXpN+QglUuzxda+2JiyW/Z12En1LEu53FXVO0PJO2EcvgavsSllTHceJtHH9ZWoCrHXmrVt/7uHQm/32VMOyX402TA4XEzzipy2fJ/d57eoezzseLvGS9rMyw6tmC0YyEZ2gio68wl0jhVICA39W7dHI7tWrupp87GrWTuWlveSf9m9ABo68CdyBaNnnSMZry18KKsMgEckWOdlVgDbXwdwkEln05dYKaiE1W3lKmOofgT9fekImlTrv1jzYkWjYb/camUL+yyALVsbbdanhh+IdESVMO6jt+n2idra9nVPK0UHTnMM/S+F4AycZ1g2uXtnXQRyXnn9trzC6l7ucbXTQDhwEgMjBD/IGq8RM9675haZrDLGb+RmCfm0R+KF0AY74THC4T52sUZN5K2dCg8wWnDE2d5fW9GSoF2XIiF6W0i0FbIF4Ia8gHi6iREWgGaczreDMzcV6477pzT9r1rXJ1223GW6H+Snlw7oMH5mSbeXOKDLserI8olLQnFHxBMS6NxQnp4iHk7dC/kzydpc70lsmPFkqsfA7hxsmFa5JS7XamZeiFhkYV4ktrKJvqiHj/vRsccVx0RPyukIZPN1n6jGfUt9wTstz1EsyGDFy5dP8NFUW+R8w96Fm2HZ+LCyu4msiUjW3uXOy3Qu7ikfllCQyeHyGwp4tmDgdPVpknR0BOj4QG7YtsUK4mrMnYqtBu6YhWXxt1vIwa7uWQnXeO+cct68TuFVyjUJTKksM5aPcEG2bNvfx3W8upxmTcU8jEL5zu8Ef5dm2owB9HSRnxlaaXxSdYfr2k4hT5LMba22XTqqB4U1GcDEStEsHLSaywPEX5jNMYTzddTNGjZtPu5WzUPl6yivLnlRK1TmZd/TP+05sxC8WxIVRRo/OpG7A8Zu95owDSiLqVTeFajg2rzCjswvpnPZF6rSCfMfuQy5ZQYsMki4BxYWB219rJVBmmkl4K4xsvSiq/6n1f1hJJUtQZQ4NIzZ/9UnCBn9s2trmHgkL1/iZeiSEBzS22Wbl8kai0bdBzhvVNeS4NQ5DyFCl9FgS5myMw+/+Tr+oCxbQ6ciD0HnDCiCFhugB5J3WaGxSllOH/QwlzOxvCTOxjYrQaxcTWvKKKL+lmhe1LnSqmvjRpshG7JMm9ImRpRpJQgfkj+2kyqy+OffjTujR1LpRZn4ZrogVKaxbKEoIacOKs2HM5XALLov+Ns7y3Bi05nIyj6l3OtDcXX/g1n0S9mW72imVPiCCUIePFAPVZxiXqgmUcoy6l5Vb5Q8nIufqJczXfMGIGIpQrc4I89y6f9zMWGIRqvJYG8oU54vcBZFWZjaRTTVCxXGXOqZ8o9K2S5szvz+ZBEKAyo74ZSLpBIAh5MrtdWCPrOIDXFRX7yQzEf8DWrDDlEV/mM36w40nnT4hapjWtz68SdbThCAK3IzWo5p2no0bnelCogpLEupbgecA2jLQIA/x36jc0i8IBQqFSXfM9484uqOIA65wEbCc+aKEqfWiipUuXz9P5++dtCtI/karHBPZi//vJiPySdRJHDGb4LjCB+vIYLs0xXf+q2zw1FscOnOYRuf+Lr4xyVVqzFYgGYZ3KLWAIW5gRpfsTao48o9w2MnCHUcRySJsPgmYZFCvVJk5oX0ltJbSjAc5/LvoUczgRjew5xotyCoc6jaP/utK6LY8UNrUqF5ozs2ITXCSAafvmxhsvtSBQCv+jUZBDFw4XDQVcrnZBmW/cf9FA8M89Um6RRYKVq7A4Z9JJs+M6tCjSRTqIKlt/GnawT2X0mbFE9NMB6xTLTq8x2mjMX/f6mINaxJjsspHZDscs31EE6QwPzV6PfNL8KNrxM2xo/J65lJ+4Xh26aOf6ObnU6cTX1t4lfM+1fhgY8llXsJe6v4bU4By23vBinJrAuWXdCSZAP+vkqh/aXDPiVACOLBbXfTZv7qezuRjNxN1ANwG5NhfjNpfEjm3Pl3fzXJpHdFlYLxT/8cn/a5k5lsgz51OkBn1RD5xtgyvooAQEAS+Oh9xFJxPZzvZK1Jbgkp1757LmuGEOAPPFFmDKRY2I4RTlBMxfToKMnZYOnU+csfx4J/Ub1wa6GP+AnMKEZILoYoes4ieDfeFb4leGZhWMkB4425dMP9x/whkkvoUIWbbG0e/E9quE/+IpASOYqUuRtTdZ7lx6MCR/lictGu+HqYFUVk0MbTir2fEcZjUHyO/6/jndwGPZJgeqgMeqCzkMI5799TeHtfurYPbe2wmLsf5pYDuYxhoj9aVzYYbADO3hJv1pCtwCm9eo8obZ3h5+uRWP97/laGkcN1nnewBzHcvOK8C+4Bb/oQ5Kjnaq9NXtx95tnh1PIMgai+ixKK2YEbyUBf9wmtjKOBXdpWTNnsAt8y37DzL0kOjLpIFpVShRFZ17bzOzC/+OCWlTSYNpA3YRdnkYi5KU743pFfoDd4YLTImyqYQcUNNiWqSdt1nfDj+1eoCQHVsS0x49S++hDQXW2+iOuSDhR0HBAa+bBJ2f+ZxpluTI3tPq2LmPzUuvIpAKqjiKY18AnQrXYqm/PvT1+EablDfsLeejN+g9ew3WSQUeqoAq+ydhxF/1sdnqpfD/mofMFY0AGFfApecdc6PKsAoPleb7yUNrBWnPBmAPZAojNJeYKfEH2CcRArA4mEt9iXUhk5q8xsieZNarXIzFO7r5sSFqzkx4RVuAF28BPzOHm7Q8m2fG7yFNbBVZB6y4Iyvaa4tO76eVmpLCNMH4rUBBuRRaS24THXUtg/d1wwmndnrkfr+4ft1T9+v6As5fhRDxefcSVsu9E4yfALP3enD87lCSZiW5PdZRqfi5Q+ftBGlSWuKTWhBpkv+CVEtvWagXsQHLIC7ugSSg9rgQnDqGy181HfNVY+HoZXUp5hQQrgAiz6BiFyQSiLX0Q1FW9JQkoAT1+qGDzpqZofmEUAto6VqxttcaehCxjiKOHfiZ34sBzHVlw7bz9VqYxsf3JplIXMzihmqqjzUW3xUJtHCv31bAgKkM9JNwXtxNc51Px0Yp+6Hn5IJWLhrjolwel6TWp2fsGEhHXMD1qj305bsc4NwOXYj4eEPloTGKBzuoEORiJpwx4AA4yMEAySFhIzrD6tjJ0bmiYoSJMaH9DcLZqwkz64BMC3n4y13OY+Yrpca2u34gg+Smo47A/9nE/Pa+jmpXK4fhP6LR7Wo+1DZtll2263/QuadV0Ou7Ot+DnEpdl4nWYNo40zd395F5MwCAdBTjHaZNaMf6ZyOgV9wjVCQqsqRyaDOk1hXoazB6PffIDTRW3lOhFIYXBMhAFAL1HefK2kEviv9AxdBS60KR2m8eAqQyV5nRO3Q3SYl8gdqgsAo/uo3X8mOBq9pKjNvHNuY5y0PnYjJNwkMEaCvYLJWdBom8pLma+0kA9XTZa/krmGf0R6+H/iuxEn8s9lmYeonZD58ProPiK9SWdrNv3IEfJLaA96xen5fEY54niKY6SCx9zXrgeE3zpzE1E6qu4lH5vPnQ7fRk+xEqKUBepbcVlpDaAc9s7ldO5BI+hCYCxAOTzfbJTB6ns4aga0qUWcZXCn9TkFspSqyl2rI2HUUUVBBeecIn0OPN7aIQm5r3EGBIfzCozi5pIitojvSeoa/gofE90gk6s9B6BUyXP8P3K4Z/0LRLhOU7ivqXYssMH+FpmZmI7habvLU0qpSu+ay3NxCrWyB9FKUekDZp9JXUQWVAb8VexvJa5BLhq9a4/flVtp4mMcxC/9dqywQCIxf1143NwEn9d79e4D/7LomJcPNuqlsFXDcKJOaXPuhzYMrdvH+C6WbwxAe9TmuvrZDIkjzTWHJKEdOAdSEq5NHmBd2/CJQX/bRjGTbOYXu/s69KttFUqT4k0NG7VsSldqqwrWZflDu8BeV95q+pk/wQr5m1h0Z0DwC2pHk3gJzsPCj2C7kKJN0P0PfEYUKzFAo9ep/BEIBod+2Ip+B3qAePZ/J6RVQZH7mqeQs6Bme83EzkUq9qZbpHRuQNbjb5s8FnlgmqVX7DOjXABankxhtY+osGX8t/3iOT9Rv1wq7s8mzcqerPUcZVfsjeUDrFF5EutGc7fqsm5cfihzTYrw0S79NR+q+MDx+zxs6PRxlP4yoJR/8GK+tb+ZfYp6i8z3aOSXKtu0NCny5YEwjDuSo6nG0U788GifGsq0Ks520EjB/BalWcp+oZ4vt1dvpZM1fZpX/oJbYY75SYJSYyiphf9cr8mRU6Hfk499etm3CQu+z4LG35DVzy192AjG8uxzz3KhkrR5/d29Sc9ejGfcUldIrBqpuIZNY5hu1ApV6D9K6mSLo5Gctf/eXOFpz+BOsGK4W2Y1iTFzEgbHVTJlwvTq+JsG9XzSSRw7R9A6DK2RIGMTLR+TeVcn+yAfo++dk5R2jB7jE3PyEiQm0P+NPHe3dZnjze6XvBF67Px2FHhqE/+RzxSWedjgNVMEIr+lVwO6CTW/rY4rF7cii5dDyVbeSZd+isz3xS15oWRywZnhxa1jGJEXFkTYtev3BagQ1ueKXHI67Nc4IDL12G0rCVWLw0CKv6tnr5B6ea4UoI3JkL9yw0QhLoEdAj1Fj+1q62MOyj/iuQ1VbLDz2m+ycZHjxiC+XgoXUQFBs0ZrOp0c9iWLyU0JDoppgCxBSoGAZGTbXr6Y/pE/HCCcT5RTqE1w1zM9GZ4WfFSGISQcUpUA9pRW5giN6TWfCKDjtOdD5T2LGhOyEqbnSl5i9LOqEozwx2mkrPWgxEHTT98cA5donjXEND/KXdGq4QUkl7Eadi9V3/21QooSeHoQ4JcS/ok19ZGJ+4kAcSX2wHEtXYMuoYOl8l0QhhayBYeVdKzz32haTXfO7ccZOEne070kCFAQu3pVFklcZs/KDG3cR2F9NckhEqJUeBF0XpXriZr4ey1U/114LbDDzh+EBKbF2BxCAbYKQh5T4K/DPC3sSEB2TTxTLfAzuGlDBXXu8y0CBMN8Yv31NycGZnIzeT8utwMTxkwXldptAFZorgA+yPlb6RQsQ61E83i1GyHidTh/aLPtvo+/b38rU1HW/oRiQruGnnbngdkTV8t9ibdSglJJkp6tBIs0FC1hBdl1rUVfEtEFK36Mih728aOIS9yUySaOSEpcx1eET6IYIvCf+yPZrbfjXZx992y4wt+oaNh75dLCErk+XUyiD10MFq2G6JaSnSiirwApMcobynN/QaLm19PbSHdJCiNQGB6PIXK6vR1Tz+HEU62IvpMFazWxfkZkIVlj+zufpUrDjuUmW2SFKoOfM6Z3F1kNxj3JoIkAr6HOeWT0c0RiJI2aS9A6qZRNgiUW8rPBMTyHbJZflgb+EEDvfu++UWu9CeCXmSVRAxCWzJyWdqyJOQ17JxKLeIRVylyDLYPhkT0w6B+aO9wSvvcUlPtkLQgU11DViayo9H25DE5DJ/G/D0y85CgZZ9XpaU8Z3AoTvxG387Ja0PPRteGPSl/hKGMVVvki9UfH7+779iDSlaFis8A33RsR6Y4bzS94+54OturTmSAPmMtaV1G4GCcNdxE+Y9XhmF0Dk4AAul1aKMAAAAAABNpoW0nhr11jiFzfFuE418HuCZy3U26P/kk4vufjDEbJS82En6n7guZbxciCioKrwlGj9MUub6kUPcsn1iWsizjHWSjqLifvTQmLP/HPJ93DZOa1RNF9jbUrmC+86WwQAKzAM1i8we45Ef78D3RbrIx1F0UXQOvcxjO+3iguwpzIM7oYwAAAZz64PWPM6GI0J3Smip92BVSTKAcVUb/hXbjsWLS6UbLRGZaPM6eFzUYqO50UtBotXiy7e35iRI9dw5QfL63t45jLHqm/qWKcxFBXzS0NHM/AgHMoL7L499YKPsvl9l8n9FfbVIpazRDrP/Pf1PgQNEuSMLEZF3zm5kFkf4LrjXd5BECxFfUWPPwAK+yX0IYg70QPhv/ht2HjPTAkHfreW9bL1hc8C5JGA5J/ayw9dO52QqFuebPoKcApSjnYJwvCi1VBf784A9DCtnCNlcs/nSH+/hBHIm4Digg3Qn17XMJbnCx4Ce1AyogH+VakeJVWuVk1cdz2ouLnoDiuvEj6yd5N6qY9Lqkcsd90U6p7n3/6GUghtSJEOtm2CZydhPXz3cE9UauYW9V+RkHklCaFGmUCZw4pSedQ2VQQUHjIhLmGE1NwtmZ8K4+Xh/RuWzkT5e5reEhjivx+fWTH1FOcXkF9rEKl+bWrRAKGH/nJyERHyfe8Pz/0s8H0Ve5Y/WbMfri9WB8F0Yut/s5sxVIcC9jj8eqOJad9TMy1RtLwiHiGYlneZObtI5o3ze7s+653AwBCap/tPZGMDxBAHwuEdvme33GzmU2l5H+MszCifT5Dpe7Hf+/W2z+Vyz71HHMDWI2auTiWv6hObKRcnhmX3vHWp7/TkImq7lOJHyVgQbpM6Y8lYPKD2touuOzH0Ny4ldDfHGVcOTepFE5BeOt8nSH8rjwYgRCrD1yFe/7aWKC72GtZovvEkTkHYN+XpIaPgwwRlqNI2QMgJNo+qwwakxfv1IN1KUq1TDjmvZdyY7lqnowFMGMUkzkxHcrr5gCFDBq0uwDdhudxTxBZwLtYFJNChWYoplMaY/S62ruAhz5Vxc2kSCyVjB4gPFUR4ukZyUyvyvNnA6LNpZMpjBkPljkZLFPXyHShcBFZ3K1CepsJLJcIferoi11+IYrtrPlVAmhImHb+TCaeEG9/JYoR660qhiP0un8im+v9bVdhrbIpg/vRAqQcnhT92I+nRFc4W28e2nPh8m7KqzfBbihPOh+KVd8WYUz7Fq3qnD+VVMrOwefn7qdiYY9BVaTsID/8Q+Mha9lYuKoGIuIHE+qmLlaYe/Bw6p5GTPr59Pz4SJPuYBAsCSKv7X8kO0qUsjkZnh/eggC5SWGKVEJbiuPFvAJPSTpiThAng0/2qrLBf3m9B7LI+eJuflkuiT8XHRAy47sBZSGYVnS8ISyVGrsvPnWzOs26AwOirHmdLgg+owL9f9DSJ5KwfafZ9COQxAGtS6ql0ZU1viwsxBgZBB8p0vQhGmqb2jbNABi4CQDyfsyqs84b2+p2QkTCTjdTxMeNaZnSFbswf3XrI6u9H6oDp2SqMsruRc+Y0hHHNNVVJ34hz4MEg2Fqh4bgmb9DGW4SaPc1goCb7ET/s5PkpjhLRkaPnNHgqs4smqrX1Nmrx9JBPfiFWAw7XA+/iJZuvr0yhg4BlueGkPulS4j90mQSwfiqfTkUOAE0hkqelPV3ri86D9kcgN8MGKTRYlMKwhpMaKnyGgIWTh3jiUumctIijOvgBe4vH3720U+LTctNTk3WfVy+xk1HYDIBSwbv5Lk9/ZCMzIReeI24rIUratnnnLQ4+6qvnvjLH8oJmFNOmGS3YIpXcKMgvxKAQOMp14GShWtTkfO61M2b5r/BFjC8ndydiwd5VF3ZQPGMuVev4B9Q8CAndBDeFvKGFUEEF3IPzssy4FXXt/xzI/43rLWAi3BpxH2eRFhHFb4BZPCTrwPOHEkWFZbkRmUhchgOHEiUlHn5946msmnxqadW8grDoXUBK3Z9udYf2SQjDBJOW7/ieV3V4ff7aelPDXpDgw5vadQT2Bvp7JoAXu+2Mru8Ym/GNjUks2BhbFSCrNhxw+lb9k0YCKYcOHs9kkNLFyDV/KyOgd3oqjG4kwfBN3UGBpHtBwVeT9bcBvZSiJ6bVxk+U/Jz0vs3ZbRXehuXep5bIso/af76230HG4ja4sBdOYTx+lXtf9ytcIKwkrEMVB/lEmLYY348jOKUfiTzCgMpU0iRti0UGRSetmPurd7jdXjW/vkxvnjSw26cuzKXPaEg0TTmxcLoEakorHwmyL4LwLpEOP0WvKOzUPoJgjzlkaKR3DizYMdmBR9cwVB+idwXF9ue9wO61xFO1/dAH+X59AXF558IcIXU3eHZxBN+gMOZgvMNEIaWC6GFPfFY/EeKM1thtcqBvDM8FepDZPoSU109UuNwhhqEglnXEmMljqdMo0VO/1fLzxHSQqnPdZwe+RIFQgIvNny9BlmgH1zA72IqqtiI8ET0xiJNhyebi0fUO7zv5zTytRojHQ9JtqQ4W4yDoRAXv4NF7tNS7EXEvq2+6rp+oLYDMrS8s230aPVcI+5b6OMb4QO8Onu3yqHDkxBWePmjDV0ebgsXXloxQ1d3q0XfXluqmWvDDkhDfsbK+EdNQyZhgCYHtZLeBoX+k9neJjErymb7WDLboeQIIZ5uJq/BjMOMwpejATA1QCLEND5uX/BLvWfHRATLteBLw5it5wPcuL0SjxSSk/p/DDPj2MtTafqyqRAqjxMCjBWGDl0jzGA9ZkRC48bWJcBuI+1WlvHzK1HvuTJEBC1sOhXt9RFaVGbntOuwQl+rcTicVjxp9/CpYygQlp07TtZoh2sPo5lM7pmGRFYyURwlPssQXRpIGKQF06qvfe3lweIX7KSasyYQGZ7ZxjDm0OSIK2ayqVvoMPVwhxBEVx0+S/PHiIeZYiJuGd6HTtgE9BBDe8FPsZSxgUlJBFQakiQdMtSsVTyaDTfrkhjWXR15q1z2TMhzRpr6F5M4U7rNmRX+JKxlu41eHAzdfZTOt24IHdKb2Y8Aw0gZC/Y4o0BPXQbhRkhx9cwKcNZA6vI+r5/j43tzJ69gRcE42GxP0pJ6qnt1izm9OpU2NsQbeqqQyw4PGm7cxCrr0ljZMQs8YMTicAVd+P/RXjo1tR2nwYRjPT1LXUvsL0t+vIKnIT3oTYZ3u0oBarzWSPFB6ekLF4/Gs0RJy2ph352/iaRjIh3YvsXuTfZijzPh/ed02Ff793bLllKedqXhuYVAOxRCPMXJw/2f+zAtOTQeUguZldcgRZun9oMSW/JFwBgZ2FHGWDrB13PRTi152AZsVpwenyZ27PAXfkDb6De5S0ny1b/tt6CKuacykV8ehlwQVqvlcTt1ainppM3TIeWJz2J5YK1GsUYetNgOGiQLC5Al6dPkP+dGg2YzyptXib3gH9Y+cJ1/kSTteGnrYCYC7DTALAe46V9BW4/K1S7WF8GMdB/0poM9kuTAZA4VbaW1rTk73DZqo9qj3lCLHVqCnwcyZAMWR2lnG464U0wyASbKfB3O2XB6AEIBFxDqu2HvAA4lFDzHfXkejZqXtAyian/pA1g52wgBcq8nbd9jzKRMNDR8MN3eR39HT21MU2c4ysh+4c4IASue/cCr8s50p/YaX3x1veyMk32nYUYnQZB+a45VDVjEZWJmxXBh6vzY4dO6AzIPkXZ57HepiYaxSNMUxwmqB5YqNK9lN+bvpI/tg7Z9NugV+ZFVUmsSzMAZZp24nPIHnRZtpj4iSXYlirtWy+seShMPQ7hghbHSmESFZRa9tQEmC0ASAzPFXCYKeVTTY3rzhkm5kvirxDr88+4ZxlHRrzyBIIILNezW4OHO6FH+krw+gl8pGRiZhFAI7aMTS/RPaW7iAkrtF2+YykfgXo6RISyxKo8vqkHRyz1bn3rc904xflmB8JEX9eHtvI05HD4fhRjlgnWWwGufuiUlMCWFD/448aJa0Uh1r64QyMk6Wt6+UZSducA9nXeqbiNfeQqlQah1O2yMWPWrk1XWuMSCOWIeTEbMqv9wMxriFQu5QpeQEoe/0fmTz3C6yV5flabpdva9/s5GSjquCg0JmvD2GFqk+sWHdQ2h9nm0R3Yjg4hnqNtF99IUkzmaETp08rQlBLoGKeG9sK6Rb+WN00dxbGHCnV/ZQcvGRGBrC+s3bVA10PirzySIY3eUFX84BKyODFqXmQ9ojANuiN+Qw7ItZxEcyGgLxwUEFwujzKPWmiHpN4OBwaiBx56II53VkqBcAIfUT2SYfFiKcNVyJiCtBtlQWYjaCRo75Yj72Gichob2/TCTUlwd+aExRl2hh/vM6fWBgBC3EQBf5aCTI0rocy5fLPukWN6Yq4vEqYHG5jJXlKheGMKdVCAaviVWxOBwT5dhXcarZmvN4zBkYRfS0Erh9AzY/t7rWSJ6eIRFsiCHo8IvFWNh+jqy06IhCdqCGrVkRkH7vyDbY54qhTbRMdUPxBt1KJ4vMM/NLgPz7gSN8STakrR6HbfQ7HntYnaD8UcEGCGURXdIpI3yWZvK58bwnDnsBtvD3fyqjUU7mM0/+tbD4HmKc47GBygm0BrERsnrXxyWtkkHxHmzL1WI5iCoF+LWexvtw1YohbgH+iwoLpz+5rw9iLbMm/TxnFWi8yvFPNvgs3Gbbu+q/Ivy2EVAqYH8coWy4U5CDg8/MMg8o08YhZrOEuStdgJSIVne25qICC8pdAM2wRwoQw0yRG7S+t1i2CPPTT+kLhcNzioT2RdgpVzXH3gGUjzhK8WUZfKnYwblrEcq0Gq1vU/m5fGIWppbNTBUYbAbAa04AD2J3Cqsaplr6wm6qbx7XV4Umgmn6BxMzaC6ZFi6TaVgn+UgfOUK5CwCJohFpDTsl6qGtaJ3Bdr/kJlxzlt4ZSGNq6jrGiGxV78aSqg45ZkZKrcJ/P13I0fzRe3PrYLCq6pa1VBLJ9Gt2TZCnQi64BXShIdZKdtGp4jukMYq6SaBo1Ejmg13VTX7HMilFea4xTeTCvrsBRZOdToP3PZCbkq+GZrDxgZwXP54bZpaUTO63gFNquOnIE2mZEW6mlHspVCogCIZKtfvb6Zj/7ZwFGL1PaDalONULerIsr5UlAZfGkdHWqEsxfhcL/Mpbbko1Y2x6PIbE33adR7lyTCD4u78zzJ11jq/tdR//A5F8b1jCtAKh4/s0h6B7ev2/h5cIPa/QOb+pDdgugSOOHT/t2ARIBLsQ+LHbzM4z0TyZmLHRhaDT/Iz06shmxVnNado2pTtUI3acziXC793+AMRAU9B5f6xjMh4iV99WfwbOVtVkm/rcbN1rvcYD+CddjXpMDAFKkPzH9F7rExx50m0p0Rb7b6MhkZqZ1Wadhn2ve0KYShUn+WSoc8kt847SpVWuSSExKZYPwOUq/x1ANRmc89n+3tm1RSfWjbke+/QHulODsUzP6JGYzPa8nsP6B2iHSJI6jNREKHcqhb3IgH0oYgmUA+cLKdi4yHSezt693/TA2wz7SqTRUOAT1MTtTgwD29Ph9sFu3En1vpFLl7d14LcHkB8hg0dryHtBDwnV0StFJP36xXE+LX8Z9vAaHh6qX8PK98uLO/FrwQYIiyUCSCG/CCxPQ4VncYyDV9YNEwse0S8KyEA8KBijPQEajZCwNB6VKiNaNWiRlFKiFMSLS/Jxzl/jskbCOyKVJ4PU+f7HTdf+c6e5VrHiiHY9x///rPeOIAKOkR863jL/LfFamkMlpH1tv5CyjCnqX7SA3VmyvkmgFj5gH0Nk8IM7jfYgjwJLxeqJQBqSQMAQ+VN5T62o2OPmLXtYbgPuhVXafYz5oYmXYppPfXRNf05m3bI4jvWh6zwHv/dm8l2fwsNZjv5hMgUFqLTHdhq4+TgULqGjAyt1COykUluAfTN+JxetQPdRjulJRoOBqROaAHDiLHs3ytqGzKG7la3JqAgANfjZKCfKQpVuV/LeYwkAtQkHtffh3+S9XOuWbMYue2KpOFLEprH+WQ5tJzKBse9syz7izKdwWj0OWMwWr93fk+3zRt/0T5fYHdBv0aoHfxCs1ZvrBGycnbT9a0w+aJ6MM7vUa1C3Mg3gshZP9LyVRPeYEqcSzbfQ6OOZ2hOcXeZDj1wKYNPE+RbxENpeXoubwF1C4HeJ0N0mjEIF8q3yxz9O4jVVNDYACtIZhFaq3IzwxvZLwVGlPYi5up2oJrjDkQCUf+2yNJusseziH81Cd75xBFXzDv7g3t8jzvnBvvbJkcmoQAAIvZJd34JJSkvoBcpHRsDR6aDZMjD4mvAJQIVWCWEr3NR9Ljyy8LBLsBTBcQQeO3LaZFkGmaL/7HXrZiE7JcmlJJv6xVCGUk1+WAJQJH/zrk3G3CewjyJcgoFaYt6i0wIexdDDktAhFeGv66gelKW5TMYwQmHII4V331SC1LaZAw1+j2NU+VXWeVVt4hAay4wjMafu8NVtYu8VcIyHbKrZSjPGh4qpOnrZFFExhzuwmnYJ2eqSxV8E6yHTfPhQI2JAW/gEdN9qg8EV905BSJ3ocEFtvD37EhrvF1+d0KA+YRh+xkcRpgMwKJMt7E0zasDb7xnyz/Vugk9Oj454wi3zI6kcuU63gUX+k19kbrYV2wYWBCib93hohEaHhCqgNsVP1eFP6kAwKsHObHws2Qe/l7Yfqh19RwLXskTHv9bB7BiXY+j3plu17npAlWpMLeipTr1j38YJN0PKQodV9Oo9F4mY+sOICN1NA8tI84pjTrLgTjD4RgEdBXrOjziJzOFf+IlCA79HxTrp546q0qYkhp2Wzy0Lmg22Kki70YUIbE40tGrCzOHGLyMJS7wgLG0AWtluWJFy3TI2FaTNzKoDz1MW+5H+sK0stxlHurnlrjXt39JRXK/4MQ+SemYJj9bJvVVj7YhyFvtLLmjzdJhPF/L/zVrYEe6Wc6r7+UoWbPlnIPXa0alwT8jjEGd1UWC4jE4GhkiFAXnK3WDjtH5Yo/vcBWASc9EU4tCyVyLrxsvflfrSf4y3WJerp4zl4WT8JZhZfwhyr7kF//PBlluT5gXjhUWoPoX1LICfYUtiuTj4zmaLQJz0IuqsviP9fFANyYSlkFvkGsxW5rxgFaPB61PmqucleTOrQHPFY44f2FkZ/Zoovmk7Pjlq/Lh4+HgxevrvNgKhXvzThUlllisDxL4nFe5zIZ9J/l/hRmEh9ZzvcMCQYFLgdn2D6TalYOAtnl2U20pDCdsqwxmzAkhTkqOu/6uAppVEjCEPBbkQfEudYDQ/+XtF+vx3xWL4WiJkLjKjPGpbg09FlW1hsDsYpLSLfZt6AorpfxLLGY5M8ARUU3FRgMN14miCtXzJ+10VbJGdy6aTm33xP4bVMh7hL4S2SGcrev69Fz/jGNjE2wuEAE4Dp22HfivYfP/UhwmvmWagldbDpqA+2pvGtwToCsJ0+mBRWZYPLvmhS8ZZoLrMBvL3F0ZLhi2bP/yhp2YvNBkDYNCefTMtatjqgaOVCOWzfdu0bFK8/78i107Ai0VpAHM0+YRuITrdmmOqHpLkehx+HO1HE9ifyEP8j1c2+XJ4045TOr8kDsxuAt1f5UQr2nR73dhLur+qtyDc0k73pFa9l4R9XfEIMljDSYr2FWd+Rk7GHU7hc6ypYxr3Uu4c0Jw8OQi/M6dbTjql27tDCxCym0gFG03DdFJF9QHLZEAdlKPhrPjceDwXpVJJR+mv53OKKkFsGnnMbM2bgP+gLDOPupMJaDq3N5NCFnD+06n4ROdj0Rp2aIsmNp/Ic3LIpLN8t0GRpvQeoWvwN8vGvY4QWLmZUqRBAi4pIO/uCOLo+k0c2fGu3IW2WxuJCGfLQq6ycEDNmUl+rAVPxdFlarnuQ9cYUFUon9MjELdj0CWiIYFCVNNsGMwzUYVbeApIlIy6SOqkZDtzB4d3DwtP+/c1O5acFregr+ixoAcHy7LE7tEVmvJNRXhPfHkLrjqLPuBNKedjcxeW9FW93GqlaFkzanM78xoBoAgF9OD9he1RdC1ETBE685LjchxbDFDBEIOS+9pZ+cKb7BohjNnlTNPy4y1hGizmAacPxE4kk3qCLYqC+xwtthfk66azGgZszF2yFoAAzWqFnj4QwTZlLguuRnRmCGASbjabaUnMRTSXzVzLh5T/DbJgEOm/tO1AMcSkRNwmFwjGZy7WW7KgSHLAhE0K6msIocyypiF/dizpbQ62gqbkj3W7Ru7v6iFEFKHnFE6vaPAJp8CVnxqcRIYAA/xJWOCQjrL+jikT+hcI5Yp4KHpfZYlIx9mCdlU71dztx2jxn+nxbW20P4YhBzd+66G5trSpUQWQ1YM4OVqBV9qSpppAp0LhZuQ5uQPbTDTkBBRXl0Tw9F15MbwzImkPPrQVSvmBuJ3X/H7Q+JhL9AL9PKDC81ajFQVLw3blFLPVYEEPLpW+9wqWN/gRUIUag7afATz5BzsXCYGUY4QRTwy0bXXoILY3bWBEkAGb0EN0v+MSVNKJ9H/u70wC9Uww82OLra6ksXNu3gEIbqv3XB2sdMVjGKup7zqZAwPk2fDPh/FAYR86hiQ36k7iknJbb+1a0b+O8jJX5+9JySWV5i3qM/wrb5BntT0UVEro1l2TygMpRapJKeosFh3/68PKhQgBtyFc48GVSOxmRR+qYYbEcdz902CaNIypmy9NMCSyRfG+pc3z7ysuWRFOSETANyy1/nyjRZO91QuSzpkHTy6ejLkHL5t23QKfv0EsshINXVDpmuNLEwKyN4TFpUGujZM6RjbdDB8mUSsU+11zR4BOrnX3nC1UXlfWo0o914qc5r1FWyyGofwBJa70Io3f1Nenwpbua+B7KNGhj2E6yth58lXXV6hXCrrJjM2KDm4QJoY9hOsDimAjBViBX1hJHSNdNMfDGzwYsV3Y8tFWnVJGtP+d3Go3ijU/QQat+fUze7hpWCL1XNA0aAtS5eCQrxripUnHpBMzFwzZAG0Guz/XdPbFNleC1EsQ8npDrn1QYKKgMEbMlEwoSUqXWU+fQONSowhPXBMwwd1jPX0BxC6Af+Msfdz3uozKFFW7dcSzNwL6yH545tmoxsTk2zQjfqgrv8eeu0LkufHc5ugewCMpzvNVhCR2Ez7fQB0FGWnKY4/DaOZ4vAM5Ry2ACBwWrld9H/D3cLiWVaAbMVG0jqUqgtGx5b2Kqu+9OPMCpfnkRfEWQMFrpC8Z+kVgMUqTZyv3dFvcijVUOREPZe/3WMbwpvt/Ulp5RgBzBKJ4wn8ptoMN9EW5aoAwwqhQlEdmOPiabm+l98Op12qmT76yauJ7u8hgyuVbc1p7XGryUYYJFr1qeKEw4BZbLhMtOBtTZE05wBjwJ5pR1+9sEkR+OLcfFY/Pb1mYVFGhOjiPnli95aeDqfkcFiHwNMmxRLq4zPu6qtvP1pY/dNUgyUCcSlCqqi3DXeQaDEDOnZXlrsphUWKhYy7LV/WAUkd6W5wr65nH7OfEksvv56DfAqrvnWCIBdzQnhQQ1zCwy9Eh7ekdOIwEJ0t7tfYCRi2ScJuU1m1Ws6oU66Ggm1zh73PPhEdlVv4WFPrHPbHbRtPsaAs9tioDFUaqM/Z2f23XusEpYhPSU/oprDHOith8Xe8HV564zBWWNGVxBljG/YWCzsonRyshRq1isTjW6SO+6LEU2MCfIQHftFh8X4h/znVNNLUKE3oqIGQAaq7qh76RMa0zrQoEVF+cJvIrT2AuzuD7LtnrGSV0St1GaoG8Eyh/5CwVppsGCRfqon2WYMLESbUxVl04ILAeUi9Ozf33cLmX/feAFb8uuRae4h7iUkoeJy4Dg7VwYJHV3VJ6szxr7kaXpqk8mIpE+5EGrt4ghcoAGQtB4eDVWGU98JJmY9oUlbB1DkFRe9unplQUtfL36nr38GZ9b07zlSMIsGdNeY2tBRlUV8wz/VEo6Cuw262jmK8VKQ/Qz8OdBLDirBGO02cOYW6gU+FEYrMQfuYuKxeu/fRdTWBG12u2Xw5h4rqb5RLn4wEy2pmmyOx6TkVUlSQtDGSBZXSCebh9qmiMWodsD8UyXQi4G6av8I2ZHYdycbnbamDJO2F1l2UnrqNq5SdeUdkVSm/629Uq2/Mlu6iKyf+UWuvmh2bc4sGEUVWC/5wQvW+JckOdJ2Kqgydceqt0HDqckwmt/q73GKw6445fVfp9xGOXMCllXvJcaXt309o19EhZei6Rsr8oH3VmzrxsXcITQMVOeCfifz4Q5X2KnCmp4PWSTf/LcnokNMOYcmxgIn0yWZqP8sc1W5PsNpZPG9O8lN0+uMxQTDBBvjj0bMlvfW/ZOsec13RHw9M/i5/WAmzLum2Szguf8GtqcMqhAnShOCHesnK8N/G/2gUbP+wEddJn65Kx5r7Ei5kTkm6hZy0HDB8x0PuIQJWeMZn9FV9T+tGtgvDbl5OZuscPqBfYAcjlJ2tjSnLqO8DJr5LsuGmu8LmecSA+ud4NorKjRB6KMe6jVwVFxO8Pl8EWWwDAlAL1+wBSXQKFQ5LPx+W3hMMJN4DlGovgeqdviCQKOz6drfjcqDa887pP/eI2ZQ14/958WaVHWXXAorFFOBn58SZs6Tmgh84E8XLR+zIptDxuRbVbQfg0VTw1muDdn/Pfui3pOueL3jZ4nE1CcXadLIdA1369wCYUtAaI/su5tLOeQFLO4E1/ycxj7Co4/ekIIZ0wmuLN8TRqAP5YNw9fjFaL9nvej8N5G9Y4hmweCQeF0nAHTRh25ims+3LnhUtTU+ZCQ5h28SrvX6clpkY22PVcsu7j/xMzDj83i9pNQGT4005JWaVPajXVyNdI+D5fzvi0BSrtpFzqp/LRaRn5BZF7C2TZWMIY5YhJLlDq5QALUWTQLfRiRjEf8eK/1o6cLtwhqzCsKJ87fVXRYVADlyKfhvdj133XwO9xTgiNB0QhVXxj61Y60HvFQVspcE8Rio51UNCNxy0kBHaKGFwwxNWGvPujXePSgkKPQuUv/CcGlCiLWyUUQZKAakytekR0okRoxSkSN8Feflp+631GK2aV/eXL8r/TNlNulzGof0zUNHcTemwIBdcuzEq0ilr7NzFU86PGZSQ53+HUHgkNV2szD+EIW/GWgz9eoRQ2GswXyxFiPGnD3msB3udrzuS6INBF2ytcoT856x+VvxwY8Iu3FAR2vChiea5z4KDgKqtwjKCmx2DoVl0IiUYHgA+1J/Jy9T+c63PRmjjOERf+vhGPE83JO3ltLnNv1SpAsbb/cInzCmns0gm1/zGUvIN+jOFIfzmdotqcb2M1MxPN1wI9yY8rI7d336LQiGsI5eSdfYb7X6EPLbtGatNJwQ48pxwGPI+3kfqAuR38P5m7K/kt8Xm7eXm9sloxpzn5tfVoE4HKzSrwVi6nBX4lMxexZD+9+slJ5KwvjoFerUhDl4hWIw/h6tiAZICH/piwCXG6/K5kVMyhTtIqXfT1p58VFZQwWcgrHrBHCIettZ56W0r7vMxIqLWOU+XgG/jriwJhxdCbIs4bqpnLc+4HPu4u1mNTDcDMZmzAC27bJXcXQI1VhSiLbSgzXhchoOEOw62pWQOMuyyFDIxJ64Oe5e/MoqntDH5Hxs5+gqiqllXMOnoXw2pedtBkVnx1zvRYwYYFDR1oLC3Vsmwd6v9VFIPlvUGpPfSh/543FGPFFjGguStacNse9dBl6ZIUKtQzPIc2Cc13y4CFAxpNbnU3dgfxnUNgX6McKSTkk/yvctLaaZNIrXJXADzm6AiIiGpa4h0bXEKx9ft2hPvuNvkeaQssCDDY5RKNJQUMQTzlm4Sn+SpETLjwb4tv9OaxEISDrQPNKxV+two+YJE8A/2E/1COVS/Dcgvkf6jB4TGHWg+T4jmhgEtVylzCxwSzVL4tTzltVVFMUoRjsPsb6zTvC0vsvl9l8had083ynxR76dVgomIBUs+WWx1qy7R+HVF2y+eR3wsIAAYEDZAAAAAAAAEVYSUZ+AAAARXhpZgAATU0AKgAAAAgABQESAAMAAAABAAEAAAEaAAUAAAABAAAASgEbAAUAAAABAAAAUgEoAAMAAAABAAIAAIdpAAQAAAABAAAAWgAAAAAAAABIAAAAAQAAAEgAAAABAAKgAgAEAAAAAQAAAxegAwAEAAAAAQAAAk4AAAAA;" vertex="1" parent="1">
          <mxGeometry x="1030" y="-30" width="791" height="590" as="geometry" />
        </mxCell>
        <mxCell id="S4tCiiW7yjD-wL77X7ih-22" value="GitHubAction - BackEnd" style="swimlane;whiteSpace=wrap;html=1;" vertex="1" parent="1">
          <mxGeometry x="310" y="510" width="690" height="150" as="geometry" />
        </mxCell>
        <mxCell id="S4tCiiW7yjD-wL77X7ih-40" value="Install" style="shape=step;perimeter=stepPerimeter;whiteSpace=wrap;html=1;fixedSize=1;" vertex="1" parent="S4tCiiW7yjD-wL77X7ih-22">
          <mxGeometry x="20" y="60" width="100" height="50" as="geometry" />
        </mxCell>
        <mxCell id="S4tCiiW7yjD-wL77X7ih-41" value="Build" style="shape=step;perimeter=stepPerimeter;whiteSpace=wrap;html=1;fixedSize=1;" vertex="1" parent="S4tCiiW7yjD-wL77X7ih-22">
          <mxGeometry x="110" y="60" width="100" height="50" as="geometry" />
        </mxCell>
        <mxCell id="S4tCiiW7yjD-wL77X7ih-42" value="Semantic&amp;nbsp;&lt;div&gt;Release&lt;/div&gt;" style="shape=step;perimeter=stepPerimeter;whiteSpace=wrap;html=1;fixedSize=1;" vertex="1" parent="S4tCiiW7yjD-wL77X7ih-22">
          <mxGeometry x="290" y="60" width="100" height="50" as="geometry" />
        </mxCell>
        <mxCell id="S4tCiiW7yjD-wL77X7ih-43" value="Tests" style="shape=step;perimeter=stepPerimeter;whiteSpace=wrap;html=1;fixedSize=1;" vertex="1" parent="S4tCiiW7yjD-wL77X7ih-22">
          <mxGeometry x="200" y="60" width="100" height="50" as="geometry" />
        </mxCell>
      </root>
    </mxGraphModel>
  </diagram>
</mxfile>
